<svg xmlns="http://www.w3.org/2000/svg" width="6652" height="3080"><rect x="3037" y="120" width="578" height="68" fill="#e0e0e0" stroke="#333" rx="11"/><text x="3052" y="163.5" font-family="Arial" font-size="19">Bundespräsident (Oberbefehlshaber)</text><line x1="3326" y1="188" x2="3326" y2="318" stroke="#aaa" stroke-width="2"/><rect x="3011.5" y="318" width="629" height="68" fill="#e0e0e0" stroke="#333" rx="11"/><text x="3026.5" y="361.5" font-family="Arial" font-size="19">Bundesminister für Landesverteidigung</text><line x1="3326" y1="386" x2="3326" y2="516" stroke="#aaa" stroke-width="2"/><rect x="3139" y="516" width="374" height="68" fill="#e0e0e0" stroke="#333" rx="11"/><text x="3154" y="559.5" font-family="Arial" font-size="19">Chef des Generalstabes</text><line x1="3326" y1="584" x2="2801.5" y2="714" stroke="#aaa" stroke-width="2"/><rect x="2538" y="714" width="527" height="68" fill="#e0e0e0" stroke="#333" rx="11"/><text x="2553" y="757.5" font-family="Arial" font-size="19">Kommandant Streitkräftekommando</text><line x1="2801.5" y1="782" x2="2690.5" y2="912" stroke="#aaa" stroke-width="2"/><rect x="2546" y="912" width="289" height="68" fill="#e0e0e0" stroke="#333" rx="11"/><text x="2561" y="955.5" font-family="Arial" font-size="19">Brigadekommandant</text><line x1="2690.5" y1="980" x2="2419" y2="1110" stroke="#aaa" stroke-width="2"/><rect x="2257.5" y="1110" width="323" height="68" fill="#e0e0e0" stroke="#333" rx="11"/><text x="2272.5" y="1153.5" font-family="Arial" font-size="19">Regimentskommandant</text><line x1="2419" y1="1178" x2="1774" y2="1308" stroke="#aaa" stroke-width="2"/><rect x="1519" y="1308" width="510" height="68" fill="#e0e0e0" stroke="#333" rx="11"/><text x="1534" y="1351.5" font-family="Arial" font-size="19">Kompaniekommandant (Hauptmann)</text><line x1="1774" y1="1376" x2="1394.5" y2="1506" stroke="#aaa" stroke-width="2"/><rect x="1292.5" y="1506" width="204" height="68" fill="#e0e0e0" stroke="#333" rx="11"/><text x="1307.5" y="1549.5" font-family="Arial" font-size="19">Oberleutnant</text><line x1="1394.5" y1="1574" x2="1251" y2="1704" stroke="#aaa" stroke-width="2"/><rect x="979" y="1704" width="544" height="68" fill="#e0e0e0" stroke="#333" rx="11"/><text x="994" y="1747.5" font-family="Arial" font-size="19">Gruppenkommandant (Wachtmeister)</text><line x1="1251" y1="1772" x2="308.5" y2="1902" stroke="#aaa" stroke-width="2"/><rect x="198" y="1902" width="221" height="68" fill="#e0e0e0" stroke="#333" rx="11"/><text x="213" y="1945.5" font-family="Arial" font-size="19">Oberfeldwebel</text><line x1="308.5" y1="1970" x2="308.5" y2="2100" stroke="#aaa" stroke-width="2"/><rect x="213.5" y="2100" width="190" height="68" fill="#e0e0e0" stroke="#333" rx="11"/><text x="228.5" y="2143.5" font-family="Arial" font-size="19">Feldwebel</text><line x1="308.5" y1="2168" x2="308.5" y2="2298" stroke="#aaa" stroke-width="2"/><rect x="164" y="2298" width="289" height="68" fill="#e0e0e0" stroke="#333" rx="11"/><text x="179" y="2341.5" font-family="Arial" font-size="19">Stabswachtmeister</text><line x1="308.5" y1="2366" x2="308.5" y2="2496" stroke="#aaa" stroke-width="2"/><rect x="130" y="2496" width="357" height="68" fill="#e0e0e0" stroke="#333" rx="11"/><text x="145" y="2539.5" font-family="Arial" font-size="19">Oberstabswachtmeister</text><line x1="308.5" y1="2564" x2="283" y2="2694" stroke="#aaa" stroke-width="2"/><rect x="130" y="2694" width="306" height="68" fill="#e0e0e0" stroke="#333" rx="11"/><text x="145" y="2737.5" font-family="Arial" font-size="19">Stabsunteroffizier</text><line x1="283" y1="2762" x2="249" y2="2892" stroke="#aaa" stroke-width="2"/><rect x="130" y="2892" width="238" height="68" fill="#e0e0e0" stroke="#333" rx="11"/><text x="145" y="2935.5" font-family="Arial" font-size="19">Hauptfeldwebel</text><line x1="1251" y1="1772" x2="909.5" y2="1902" stroke="#aaa" stroke-width="2"/><rect x="814.5" y="1902" width="190" height="68" fill="#e0e0e0" stroke="#333" rx="11"/><text x="829.5" y="1945.5" font-family="Arial" font-size="19">Rekrut</text><line x1="909.5" y1="1970" x2="672" y2="2100" stroke="#aaa" stroke-width="2"/><rect x="519" y="2100" width="306" height="68" fill="#e0e0e0" stroke="#333" rx="11"/><text x="534" y="2143.5" font-family="Arial" font-size="19">Soldat (Gefreiter)</text><line x1="909.5" y1="1970" x2="952" y2="2100" stroke="#aaa" stroke-width="2"/><rect x="857" y="2100" width="190" height="68" fill="#e0e0e0" stroke="#333" rx="11"/><text x="872" y="2143.5" font-family="Arial" font-size="19">Zugsführer</text><line x1="909.5" y1="1970" x2="1189.5" y2="2100" stroke="#aaa" stroke-width="2"/><rect x="1079" y="2100" width="221" height="68" fill="#e0e0e0" stroke="#333" rx="11"/><text x="1094" y="2143.5" font-family="Arial" font-size="19">Obergefreiter</text><line x1="1251" y1="1772" x2="1427" y2="1902" stroke="#aaa" stroke-width="2"/><rect x="1332" y="1902" width="190" height="68" fill="#e0e0e0" stroke="#333" rx="11"/><text x="1347" y="1945.5" font-family="Arial" font-size="19">Sanitäter</text><line x1="1251" y1="1772" x2="1649" y2="1902" stroke="#aaa" stroke-width="2"/><rect x="1554" y="1902" width="190" height="68" fill="#e0e0e0" stroke="#333" rx="11"/><text x="1569" y="1945.5" font-family="Arial" font-size="19">Pionier</text><line x1="1251" y1="1772" x2="1871" y2="1902" stroke="#aaa" stroke-width="2"/><rect x="1776" y="1902" width="190" height="68" fill="#e0e0e0" stroke="#333" rx="11"/><text x="1791" y="1945.5" font-family="Arial" font-size="19">Logistiker</text><line x1="1251" y1="1772" x2="2185" y2="1902" stroke="#aaa" stroke-width="2"/><rect x="1998" y="1902" width="374" height="68" fill="#e0e0e0" stroke="#333" rx="11"/><text x="2013" y="1945.5" font-family="Arial" font-size="19">Cyberabwehr Spezialist</text><line x1="1394.5" y1="1574" x2="2531.5" y2="1704" stroke="#aaa" stroke-width="2"/><rect x="2404" y="1704" width="255" height="68" fill="#e0e0e0" stroke="#333" rx="11"/><text x="2419" y="1747.5" font-family="Arial" font-size="19">Fliegeroffizier</text><line x1="1774" y1="1376" x2="2911" y2="1506" stroke="#aaa" stroke-width="2"/><rect x="2698.5" y="1506" width="425" height="68" fill="#e0e0e0" stroke="#333" rx="11"/><text x="2713.5" y="1549.5" font-family="Arial" font-size="19">Zugskommandant (Leutnant)</text><line x1="2911" y1="1574" x2="2793" y2="1704" stroke="#aaa" stroke-width="2"/><rect x="2691" y="1704" width="204" height="68" fill="#e0e0e0" stroke="#333" rx="11"/><text x="2706" y="1747.5" font-family="Arial" font-size="19">Vizeleutnant</text><line x1="2911" y1="1574" x2="3029" y2="1704" stroke="#aaa" stroke-width="2"/><rect x="2934" y="1704" width="190" height="68" fill="#e0e0e0" stroke="#333" rx="11"/><text x="2949" y="1747.5" font-family="Arial" font-size="19">Leutnant</text><line x1="3029" y1="1772" x2="3029" y2="1902" stroke="#aaa" stroke-width="2"/><rect x="2927" y="1902" width="204" height="68" fill="#e0e0e0" stroke="#333" rx="11"/><text x="2942" y="1945.5" font-family="Arial" font-size="19">Fahnenjunker</text><line x1="1774" y1="1376" x2="3290.5" y2="1506" stroke="#aaa" stroke-width="2"/><rect x="3163" y="1506" width="255" height="68" fill="#e0e0e0" stroke="#333" rx="11"/><text x="3178" y="1549.5" font-family="Arial" font-size="19">Technikoffizier</text><line x1="2419" y1="1178" x2="3545" y2="1308" stroke="#aaa" stroke-width="2"/><rect x="3450" y="1308" width="190" height="68" fill="#e0e0e0" stroke="#333" rx="11"/><text x="3465" y="1351.5" font-family="Arial" font-size="19">Major</text><line x1="2419" y1="1178" x2="3816.5" y2="1308" stroke="#aaa" stroke-width="2"/><rect x="3697.5" y="1308" width="238" height="68" fill="#e0e0e0" stroke="#333" rx="11"/><text x="3712.5" y="1351.5" font-family="Arial" font-size="19">Oberstleutnant</text><line x1="3816.5" y1="1376" x2="3816.5" y2="1506" stroke="#aaa" stroke-width="2"/><rect x="3672" y="1506" width="289" height="68" fill="#e0e0e0" stroke="#333" rx="11"/><text x="3687" y="1549.5" font-family="Arial" font-size="19">Oberstabsleutnant</text><line x1="2419" y1="1178" x2="4088" y2="1308" stroke="#aaa" stroke-width="2"/><rect x="3993" y="1308" width="190" height="68" fill="#e0e0e0" stroke="#333" rx="11"/><text x="4008" y="1351.5" font-family="Arial" font-size="19">Milizführer</text><line x1="2419" y1="1178" x2="4461.5" y2="1308" stroke="#aaa" stroke-width="2"/><rect x="4215" y="1308" width="493" height="68" fill="#e0e0e0" stroke="#333" rx="11"/><text x="4230" y="1351.5" font-family="Arial" font-size="19">Hangarchef (Luftstreitkräfte)</text><line x1="2690.5" y1="980" x2="4835" y2="1110" stroke="#aaa" stroke-width="2"/><rect x="4740" y="1110" width="190" height="68" fill="#e0e0e0" stroke="#333" rx="11"/><text x="4755" y="1153.5" font-family="Arial" font-size="19">Oberst</text><line x1="2690.5" y1="980" x2="5106.5" y2="1110" stroke="#aaa" stroke-width="2"/><rect x="4962" y="1110" width="289" height="68" fill="#e0e0e0" stroke="#333" rx="11"/><text x="4977" y="1153.5" font-family="Arial" font-size="19">Militärkommandant</text><line x1="2801.5" y1="782" x2="5378" y2="912" stroke="#aaa" stroke-width="2"/><rect x="5283" y="912" width="190" height="68" fill="#e0e0e0" stroke="#333" rx="11"/><text x="5298" y="955.5" font-family="Arial" font-size="19">Brigadier</text><line x1="3326" y1="584" x2="5607" y2="714" stroke="#aaa" stroke-width="2"/><rect x="5505" y="714" width="204" height="68" fill="#e0e0e0" stroke="#333" rx="11"/><text x="5520" y="757.5" font-family="Arial" font-size="19">Generalmajor</text><line x1="3326" y1="584" x2="5868.5" y2="714" stroke="#aaa" stroke-width="2"/><rect x="5741" y="714" width="255" height="68" fill="#e0e0e0" stroke="#333" rx="11"/><text x="5756" y="757.5" font-family="Arial" font-size="19">Generalleutnant</text><line x1="3326" y1="584" x2="6123" y2="714" stroke="#aaa" stroke-width="2"/><rect x="6028" y="714" width="190" height="68" fill="#e0e0e0" stroke="#333" rx="11"/><text x="6043" y="757.5" font-family="Arial" font-size="19">General</text><line x1="3326" y1="584" x2="6386" y2="714" stroke="#aaa" stroke-width="2"/><rect x="6250" y="714" width="272" height="68" fill="#e0e0e0" stroke="#333" rx="11"/><text x="6265" y="757.5" font-family="Arial" font-size="19">Generalstabsarzt</text></svg>